<?xml version="1.0" standalone="no"?>
<!DOCTYPE svg PUBLIC "-//W3C//DTD SVG 20010904//EN"
 "http://www.w3.org/TR/2001/REC-SVG-20010904/DTD/svg10.dtd">
<svg version="1.0" xmlns="http://www.w3.org/2000/svg"
 width="512.000000pt" height="512.000000pt" viewBox="0 0 512.000000 512.000000"
 preserveAspectRatio="xMidYMid meet">

<g transform="translate(0.000000,512.000000) scale(0.100000,-0.100000)"
fill="#000000" stroke="none">
<path d="M950 4919 c-25 -5 -79 -25 -120 -46 -231 -114 -333 -387 -233 -628
31 -73 75 -129 230 -286 l154 -156 -35 -104 c-19 -57 -42 -140 -51 -184 -16
-74 -21 -83 -57 -110 -72 -54 -242 -239 -299 -325 -145 -219 -226 -448 -250
-708 -19 -199 6 -406 73 -605 l30 -90 -21 -26 c-48 -62 -121 -170 -121 -180 0
-41 152 -297 268 -451 165 -218 363 -407 583 -556 416 -282 820 -423 1302
-453 995 -63 1916 449 2408 1338 l62 113 -17 32 c-9 17 -41 64 -71 104 -30 40
-55 78 -55 84 0 6 12 45 26 86 50 145 65 237 71 427 4 153 2 198 -15 300 -37
214 -110 396 -234 581 -68 102 -219 267 -301 330 -35 26 -40 37 -57 115 -10
47 -33 129 -51 183 l-32 97 155 157 c177 180 208 221 243 325 78 234 -29 489
-249 593 -147 70 -291 69 -435 -2 -63 -31 -100 -61 -211 -169 l-135 -132 -55
34 c-265 165 -584 253 -912 253 -312 0 -620 -93 -908 -272 -17 -11 -33 1 -152
119 -98 95 -150 139 -196 162 -108 54 -221 72 -332 50z m858 -1200 c262 -90
387 -394 262 -638 l-19 -39 66 -16 c36 -9 81 -23 99 -31 l34 -14 -53 -53 c-81
-81 -102 -132 -102 -248 0 -79 4 -103 24 -142 52 -106 141 -175 256 -198 80
-17 353 -6 422 16 243 78 310 392 123 574 l-52 50 35 15 c19 8 64 22 100 31
l66 16 -19 39 c-89 174 -55 384 85 525 262 264 708 126 776 -241 29 -158 -39
-339 -165 -437 l-55 -42 60 -54 c163 -148 259 -367 259 -592 0 -128 -12 -200
-51 -302 -121 -313 -418 -518 -756 -520 l-112 -1 -3 -201 c-3 -199 -3 -201
-31 -248 -41 -70 -98 -100 -199 -106 -144 -8 -243 34 -278 118 -16 38 -24 38
-40 0 -20 -48 -85 -97 -145 -111 -29 -6 -89 -10 -134 -7 -107 6 -164 39 -203
117 -28 54 -28 57 -28 245 l0 191 -112 2 c-453 6 -808 360 -810 808 -1 236 88
445 257 603 l62 59 -53 41 c-134 104 -198 284 -160 455 60 267 338 425 594
336z"/>
<path d="M1604 3600 c-103 -21 -195 -92 -235 -183 -32 -71 -33 -191 -2 -258
28 -63 87 -126 145 -155 59 -30 61 -30 152 1 42 14 103 28 138 32 55 5 68 11
99 42 81 81 102 237 46 347 -63 124 -214 200 -343 174z"/>
<path d="M3389 3596 c-186 -40 -296 -242 -229 -420 12 -32 38 -75 56 -96 30
-33 41 -38 93 -43 32 -4 94 -18 137 -32 98 -31 103 -31 162 -1 58 29 117 92
145 155 31 67 30 187 -2 259 -60 133 -217 210 -362 178z"/>
</g>
</svg>
